HIERARCHY
ROOT Hips
{
	OFFSET 0.000000 0.000000 0.000000
	CHANNELS 6 Xposition Yposition Zposition Xrotation Yrotation Zrotation
	JOINT LeftUpLeg_virtual
	{
		OFFSET 0.000000 0.000000 0.000000
		CHANNELS 3 Xrotation Yrotation Zrotation
		JOINT LeftUpLeg
		{
			OFFSET 15.427100 -6.655098 0.678600
			CHANNELS 3 Xrotation Yrotation Zrotation
			JOINT LeftLeg
			{
				OFFSET 4.081073 -39.591068 13.024000
				CHANNELS 3 Xrotation Yrotation Zrotation
				JOINT LeftFoot
				{
					OFFSET -4.081074 -37.707932 -15.979700
					CHANNELS 3 Xrotation Yrotation Zrotation
					JOINT LeftToeBase
					{
						OFFSET 5.346399 -15.068900 20.645000
						CHANNELS 3 Xrotation Yrotation Zrotation
						JOINT LeftToe_End
						{
							OFFSET 2.754700 0.931300 11.300900
							CHANNELS 3 Xrotation Yrotation Zrotation
							End Site
							{
								OFFSET 0 0 0
							}
						}
					}
				}
			}
		}
	}
	JOINT RightUpLeg_virtual
	{
		OFFSET 0.000000 0.000000 0.000000
		CHANNELS 3 Xrotation Yrotation Zrotation
		JOINT RightUpLeg
		{
			OFFSET -15.569500 -6.655098 0.678600
			CHANNELS 3 Xrotation Yrotation Zrotation
			JOINT RightLeg
			{
				OFFSET -4.081825 -39.591045 13.023800
				CHANNELS 3 Xrotation Yrotation Zrotation
				JOINT RightFoot
				{
					OFFSET 4.081824 -37.707954 -15.979600
					CHANNELS 3 Xrotation Yrotation Zrotation
					JOINT RightToeBase
					{
						OFFSET -5.346400 -15.068900 20.645000
						CHANNELS 3 Xrotation Yrotation Zrotation
						JOINT RightToe_End
						{
							OFFSET -2.754700 0.931300 11.300900
							CHANNELS 3 Xrotation Yrotation Zrotation
							End Site
							{
								OFFSET 0 0 0
							}
						}
					}
				}
			}
		}
	}
	JOINT Spine_virtual
	{
		OFFSET 0.000000 0.000000 0.000000
		CHANNELS 3 Xrotation Yrotation Zrotation
		JOINT Spine
		{
			OFFSET -0.279200 12.230698 -2.892100
			CHANNELS 3 Xrotation Yrotation Zrotation
			JOINT Spine1
			{
				OFFSET -0.232667 10.192268 -1.242267
				CHANNELS 3 Xrotation Yrotation Zrotation
				JOINT Spine1_split
				{
					OFFSET -0.232667 10.192268 -1.242267
					CHANNELS 3 Xrotation Yrotation Zrotation
					JOINT Spine2
					{
						OFFSET -0.232667 10.192268 -1.242267
						CHANNELS 3 Xrotation Yrotation Zrotation
						JOINT Neck_virtual
						{
							OFFSET 0.000000 0.000000 0.000000
							CHANNELS 3 Xrotation Yrotation Zrotation
							JOINT Neck
							{
								OFFSET -0.418800 17.814194 8.416900
								CHANNELS 3 Xrotation Yrotation Zrotation
								JOINT Head
								{
									OFFSET 0.000000 7.031097 3.806800
									CHANNELS 3 Xrotation Yrotation Zrotation
									JOINT HeadTop_End
									{
										OFFSET 0.000000 24.646606 12.978600
										CHANNELS 3 Xrotation Yrotation Zrotation
										End Site
										{
											OFFSET 0 0 0
										}
									}
								}
							}
						}
						JOINT LeftShoulder_virtual
						{
							OFFSET 0.000000 0.000000 0.000000
							CHANNELS 3 Xrotation Yrotation Zrotation
							JOINT LeftShoulder
							{
								OFFSET 8.476499 7.247704 -3.868750
								CHANNELS 3 Xrotation Yrotation Zrotation
								JOINT LeftShoulder_split
								{
									OFFSET 8.476499 7.247704 -3.868750
									CHANNELS 3 Xrotation Yrotation Zrotation
									JOINT LeftArm
									{
										OFFSET 9.308998 -2.777710 0.208600
										CHANNELS 3 Xrotation Yrotation Zrotation
										JOINT LeftForeArm
										{
											OFFSET 29.972298 0.000000 0.000000
											CHANNELS 3 Xrotation Yrotation Zrotation
											JOINT LeftHand
											{
												OFFSET 26.026505 0.000000 0.000000
												CHANNELS 3 Xrotation Yrotation Zrotation
												End Site
												{
													OFFSET 0 0 0
												}
											}
										}
									}
								}
							}
						}
						JOINT RightShoulder_virtual
						{
							OFFSET 0.000000 0.000000 0.000000
							CHANNELS 3 Xrotation Yrotation Zrotation
							JOINT RightShoulder
							{
								OFFSET -7.570500 7.247704 -3.868750
								CHANNELS 3 Xrotation Yrotation Zrotation
								JOINT RightShoulder_split
								{
									OFFSET -7.570500 7.247704 -3.868750
									CHANNELS 3 Xrotation Yrotation Zrotation
									JOINT RightArm
									{
										OFFSET -9.308998 -2.777710 0.208500
										CHANNELS 3 Xrotation Yrotation Zrotation
										JOINT RightForeArm
										{
											OFFSET -29.972300 0.000000 0.000000
											CHANNELS 3 Xrotation Yrotation Zrotation
											JOINT RightHand
											{
												OFFSET -26.026505 0.000000 0.000000
												CHANNELS 3 Xrotation Yrotation Zrotation
												End Site
												{
													OFFSET 0 0 0
												}
											}
										}
									}
								}
							}
						}
					}
				}
			}
		}
	}
}
MOTION
Frames: 6
Frame Time: 0.03333333
3.925529 80.126114 -0.654903 0.000000 0.000000 0.000000 14.492876 -85.979514 16.828973 -22.125851 27.906691 36.915386 25.077736 -12.388233 -1.605835 -9.338106 5.301656 -21.501425 0.496969 -0.764429 -0.649006 0.000000 0.000000 0.000000 4.506280 -85.705268 7.847096 -30.747145 -3.386933 -34.560088 26.894538 6.491954 -2.555812 -1.820291 5.268508 26.276964 3.506258 1.103997 1.711090 0.000000 0.000000 0.000000 8.405916 -81.957141 11.094297 6.403835 -3.523770 -3.271576 1.854042 -8.006651 -0.419648 0.552239 0.191249 0.259557 0.000000 0.000000 0.000000 1.883777 -8.392926 -0.865202 -8.405903 6.167366 7.138705 90.668897 78.095454 -94.681298 0.000000 0.000000 0.000000 3.231276 -8.987749 -0.241698 5.102302 -1.051144 10.884628 -4.123274 -4.351819 2.782933 -35.234931 11.253215 -2.740607 -3.921118 -11.055603 0.341738 0.000000 0.000000 0.000000 2.529609 -8.715548 -0.828074 -0.127353 1.026577 -21.606207 0.886789 1.796716 7.369390 -49.923639 42.101211 44.985911 179.239122 37.092005 -178.019742 0.000000 0.000000 0.000000 
3.861575 80.127129 -0.648502 0.000000 0.000000 0.000000 13.570720 -85.874411 15.957321 -22.066053 27.894279 36.835067 25.005782 -12.450026 -1.621070 -9.293277 5.310860 -21.480848 0.491537 -0.762325 -0.649333 0.000000 0.000000 0.000000 3.805469 -85.606798 7.208169 -30.508375 -3.334892 -34.633133 26.972711 6.356552 -2.590718 -2.023240 5.204313 26.386730 3.515245 1.102560 1.703054 0.000000 0.000000 0.000000 8.134492 -81.840242 10.869371 6.383657 -3.626061 -3.333651 1.849581 -8.098799 -0.403159 0.552401 0.191144 0.255216 0.000000 0.000000 0.000000 1.887573 -8.487073 -0.852758 -8.427325 6.241110 7.358829 93.456468 78.031865 -97.273382 0.000000 0.000000 0.000000 3.249487 -9.082085 -0.216105 5.010659 -0.828212 10.910574 -4.146767 -4.351195 2.763930 -35.187680 11.104459 -2.968091 -3.928534 -11.067995 0.337320 0.000000 0.000000 0.000000 2.547111 -8.811119 -0.819694 -0.034410 1.063878 -21.538247 0.867111 1.796417 7.428563 -49.412683 41.648854 44.747803 179.257823 36.735008 -178.009264 0.000000 0.000000 0.000000 
3.797548 80.127983 -0.635815 0.000000 0.000000 0.000000 12.667164 -85.775571 15.111725 -22.011743 27.877400 36.752821 24.944466 -12.508050 -1.631359 -9.239488 5.310979 -21.460183 0.490057 -0.759910 -0.648033 0.000000 0.000000 0.000000 3.125418 -85.508129 6.594455 -30.263609 -3.279828 -34.702730 27.044942 6.223975 -2.632783 -2.221321 5.139083 26.492072 3.514587 1.102633 1.697551 0.000000 0.000000 0.000000 7.823132 -81.730098 10.614005 6.373132 -3.726604 -3.409843 1.843476 -8.190627 -0.380449 0.554297 0.189626 0.252445 0.000000 0.000000 0.000000 1.891163 -8.580050 -0.834812 -8.447682 6.323612 7.578944 96.225467 77.928483 -99.826459 0.000000 0.000000 0.000000 3.270866 -9.176653 -0.183737 4.917655 -0.612747 10.939781 -4.162394 -4.349048 2.749582 -35.150763 10.969840 -3.194738 -3.943151 -11.068588 0.324218 0.000000 0.000000 0.000000 2.564329 -8.906213 -0.805750 0.065031 1.102290 -21.461011 0.847353 1.806024 7.483790 -48.868883 41.181386 44.482669 179.283791 36.387621 -177.996670 0.000000 0.000000 0.000000 
3.733764 80.126923 -0.620823 0.000000 0.000000 0.000000 11.785876 -85.680714 14.292965 -21.964449 27.857610 36.672546 24.892409 -12.561318 -1.638161 -9.187192 5.307165 -21.435949 0.498146 -0.756851 -0.647982 0.000000 0.000000 0.000000 2.465988 -85.405730 6.002666 -30.014119 -3.221714 -34.770727 27.112757 6.099150 -2.680907 -2.407347 5.080549 26.601971 3.493623 1.103678 1.694660 0.000000 0.000000 0.000000 7.476795 -81.627406 10.330892 6.374883 -3.825072 -3.497758 1.835580 -8.280211 -0.351329 0.555805 0.188926 0.252642 0.000000 0.000000 0.000000 1.894363 -8.669487 -0.811424 -8.463912 6.413709 7.790657 98.912655 77.789817 -102.288312 0.000000 0.000000 0.000000 3.294755 -9.269549 -0.144984 4.826900 -0.415876 10.973157 -4.164282 -4.344326 2.737981 -35.125689 10.860119 -3.409097 -3.964269 -11.064818 0.302659 0.000000 0.000000 0.000000 2.580237 -8.998825 -0.785775 0.170824 1.146105 -21.372919 0.824834 1.820810 7.530191 -48.301131 40.716291 44.187885 179.321084 36.061975 -177.984676 0.000000 0.000000 0.000000 
3.669784 80.123024 -0.604050 0.000000 0.000000 0.000000 10.935724 -85.588021 13.506768 -21.923843 27.834812 36.597021 24.847229 -12.612381 -1.643223 -9.142387 5.302547 -21.412561 0.512471 -0.752805 -0.649769 0.000000 0.000000 0.000000 1.826827 -85.299432 5.430952 -29.766070 -3.163248 -34.837981 27.180984 5.983129 -2.731862 -2.580488 5.033140 26.718749 3.464020 1.105742 1.693497 0.000000 0.000000 0.000000 7.105229 -81.533805 10.027618 6.390004 -3.922340 -3.594725 1.825513 -8.365708 -0.315858 0.556639 0.185998 0.258177 0.000000 0.000000 0.000000 1.896618 -8.753902 -0.782265 -8.474644 6.509735 7.986398 101.463949 77.622013 -104.615528 0.000000 0.000000 0.000000 3.318693 -9.358391 -0.100834 4.742706 -0.248090 11.010414 -4.151765 -4.340189 2.729765 -35.112063 10.783601 -3.601174 -3.987439 -11.065239 0.276772 0.000000 0.000000 0.000000 2.594543 -9.086704 -0.759207 0.281371 1.196788 -21.274371 0.800707 1.837974 7.565216 -47.717662 40.267554 43.864428 179.371682 35.766552 -177.975045 0.000000 0.000000 0.000000 
3.606857 80.115364 -0.589306 0.000000 0.000000 0.000000 10.140229 -85.498068 12.773085 -21.888661 27.808661 36.528217 24.809074 -12.664052 -1.648652 -9.104169 5.298167 -21.393978 0.525204 -0.748001 -0.652454 0.000000 0.000000 0.000000 1.218805 -85.189439 4.887893 -29.525450 -3.106292 -34.904097 27.251606 5.875419 -2.782435 -2.747742 4.996278 26.835989 3.443267 1.109385 1.692437 0.000000 0.000000 0.000000 6.732694 -81.447164 9.722943 6.416338 -4.018311 -3.698082 1.813607 -8.445658 -0.274437 0.556011 0.180689 0.261708 0.000000 0.000000 0.000000 1.897659 -8.831978 -0.747477 -8.481428 6.608442 8.162453 103.844441 77.433322 -106.783410 0.000000 0.000000 0.000000 3.340647 -9.441358 -0.052132 4.669341 -0.118565 11.053622 -4.125354 -4.336068 2.724310 -35.106045 10.739723 -3.761804 -4.005954 -11.069363 0.251008 0.000000 0.000000 0.000000 2.605958 -9.167841 -0.726020 0.394661 1.254738 -21.166671 0.779628 1.857540 7.586546 -47.124586 39.841006 43.518117 179.434288 35.505526 -177.966384 0.000000 0.000000 0.000000 
